<mxfile host="65bd71144e">
    <diagram name="Page-1" id="gfpzLkAAY1My_rIocrU7">
        <mxGraphModel dx="1856" dy="779" grid="0" gridSize="10" guides="1" tooltips="1" connect="1" arrows="1" fold="1" page="0" pageScale="1" pageWidth="827" pageHeight="1169" math="0" shadow="0">
            <root>
                <mxCell id="0"/>
                <mxCell id="1" parent="0"/>
                <mxCell id="13" value="" style="rounded=0;whiteSpace=wrap;html=1;" parent="1" vertex="1">
                    <mxGeometry x="-22" y="54" width="1011" height="786" as="geometry"/>
                </mxCell>
                <mxCell id="8Htt1fXJtcJN40JPZz6O-3" value="" style="shape=image;verticalLabelPosition=bottom;labelBackgroundColor=default;verticalAlign=top;aspect=fixed;imageAspect=0;image=data:image/png,iVBORw0KGgoAAAANSUhEUgAAAGgAAAB6CAYAAABTAhYxAAAAAXNSR0IArs4c6QAAAARnQU1BAACxjwv8YQUAAAAJcEhZcwAADsMAAA7DAcdvqGQAADURSURBVHhe7X1rjF3Xed06r/u+d2Y4Qw7fpChSz0hyJNmKIydOpDpI4rRpg8ZBiwTIjwIJWrQF+qf/CqR/AhRIijZt0KaNixZpkxSw6xiOY0d+xbJkvS1bFEVTFJ8iOUPOe+7rvLvWd+4lR9QMycwMFYrhR+655557zj57f+t77r3POc78/HyOO3TLktPr9T5UAOX5leZeve04DlzXHey5PehD1xuBMCwC4+rt240+9OI2BGhYbje6vezBbUh3ALrF6Q5Atzh96ABStLayZFl2uej77UYfmjB7JQArgVi5rUjO87zBt9uDPjQadLW2rFbuaNAKSnlWwhIwsjWU85QMyuwT3Od4BfbZQAYUADMQBtNJ2GEscCjx/DlPl60Sxykjc0ro87elHjCznGNusY/lfoSZtoNFNrUbRViOQvSiBJEakXvw3QCeE6BO5dniJ6iUXYw0AoyPeBhvedjCMlp3US07CNgCT62xBqioDppLtYmNcPySHeFm3K/DWBI7Sr8CvrZ1XRbH5wVd9ezm0QYAypFQan0xWTusn+olpVlt9vVHkFCy2bVEGpDqu453ip+NSTl6NEtLfeDiQoTzMx2cn+tiai7E7HKMdgjEiUNAHIRRhjAhMHHCfaxXp5NlLkF13RJ8MrcUqPaY30OUg5hAORgfDbBttILRkQrGGiUcmKhhvEHgqkA17yOPe6yLlXlloNQwQIo+iTUpBWeFmFEgcvZDnXSEVvHDTaN1A5RnMUvEBgbsgKROXSlk0vjGPggDtV8lT3l8ys5KOr3ANHB+KcGl2SW82RvD9FKMqZkFXJiex8zsMtrtCGnKY/0qL1FGHvWRJboea5Xa2ciBaiYrM5bc5XEVeKUaUh6b9Ls8nui6OYKyh0qtgmq9glqthH2THrYSuP3jLg5s8bCz6aFZ9ei/fGSsVwDFaQ8lbpfZeuLD+nldNdoPEPNylBmUuFsY3Uxaf5CQhQSoR1NWQeqwaBeLKhMwKsOKfZoLjx1GnvC/i0u9AMfnXHz/bA/Hzy/j2NkFhKH8CLVMjBDTHWoCtcIh0xzXR9xZQBr34VFDvHKJn2QNGcgTCAS1ifY2d2h2hJmIgOUsJh6sU5pLRPmdLc3m+D3G2IiPg3u34OG7t+HQzhomCdoIlUjaHYfnUavUaBKpZjl3snNxzNMDVlN8NXBM024ibUCDIjK0bxKestUCSBWpwT63HP6WxxGcoE4s++wcTVnm48RMjOePzeO5txZpxnx4la2I2tOFGfH5vRTYpxC2wCBNWAieHB4Z7QogguN6YjYZlcQEjsfEKY+jxtBkSbMEqmyQ4xJogc0igPIsRdRbQKnS4vcASRyiRIbv293Ej90/gSfubmBPy8FYac46FCa0Dl4DPo8xRrGjPq/hutLmCndIj24erd8HsaMJAwLPK8wbWUm9jwqoZBPMpBEg9szxx/C9izm+9MoiXnxjCksLGbWgTn7l6C/Ow/Ml3cprBjpI3rs0Y6YtjEJcalGa0Pyk0giNWstl8zheP6PZNA3ip0dTKMZnmUAtimRdWiWH7gbSpgxJe4mKV0ZQ2QK/2jRTKCFxs1ns31nGj96zG7/w0BZMbqkjqPFctkfhjcu+eSw5r1dESIWG30xaN0BqX8RSYp/V8CTs0TTIxEhS2Wg60yTx8MJMjtePLeKVYzP0MZTemIBRcnOaO6Qddpym0m3weLKAzLNQ2T6HOlk0zyXQruU4A3BUzIkXv4scVCjZ9eJcR1ElheRy4T6ZWB2eVs1MSpuSfs8AktaWamUTliSKsW/MwZMf2YsnHx3BXaMMJrDAExnJ5NSafMQCF3X1Zqdd69cgniWQBJCTk8nmwGUOylimpZmaB94828cfv0yHv7SI3nKHTp9BAk2PEkpCSeEuLh3UmvaZJdIIRWdiJv2GAgErHvfTZOa8hhF/M7EuzNzgY1A3wTcNIkD8HAJtvklt5YbrjvF31sV2O46Oof6b8vI3v2aBRk5/16hFuGdvCZ94oIXHDzSwo8HfqZFhzIoY6EghVe3NpPX7IBX+kfaoo2aeaKvn2O+3zud44Y0lvHzkXUwtk3uF2Np5wkUmy2EH5RdyBQW5wlwylKgXjBIji+DAjuVnmrT5mxgqwARQ4VN0bKF1ugaLQLAtHsdS7OYe1mvb3HQ8iQc3rB7tp05KMPgpLZUfBOO3pN9mjtXHrq1lfPTebfRRW/DAbqYIFJTAYYCkAOJvwgeJRyJH3GI4Lfud0/UXsniFHHbIp9pLsh23hguMzl4+lePbBOfID2eoOTQdFfoAE18xQtwZaoaiNO5nhWm0zN/EwcExYp+AGDh3aUsGSTxbYPtVj+o07hJcFjufFZiZLc5VJGiI6SfJkR3HDeZILsNlO4bXM4B1cZ1rvWcxASlRq62BaDIUf+Secfzs4+N4cFuK0WCJVoN8YRQrVUqprcSdPkohks51wNTNaCMQrgrQQNbhyskmlJRSiaF0id5CrtK6LNawT30EjJyUP0z16vjmsRDPvDqLEyeXiWvAnI9JXzSrIzdOAnbQYQNyuHH5Q3+GB2yc4l4b5foIo7cm+5Dy+xLKpR5D8hp+/rGdeOyuEdTQJTNoTiuClUk7GVeysJyQsCldBZL8ZJyxbloVIO2QULnyBa58Qk6A6PS5X5GRx33M/czOL/QcLNExP3u0gz/7+mG8+26XHZtAuTGKsL1MId4kpq0ESMT2FcFCsV382TyANLogLfIrTZq8OoPSEL2FKVqVWTz2yF586sn78cQuBy2vj9SNGdARlJyBBpNm8S6NaDmC2CLRImNaH63ug3QFFv0ghW93unSsQL1K20yNUWM9csstj+B8GuBzL3bx5998C8tLCZko00FcGQ1VqEFhV9ndxsnM5JD/ZpL08f6mbxZ5HrWmr0DDIZMZ9ZUq3E6oTR1U6j5Gt4ziMz82hqfuKzOYkBzTFTBAYQBowYMnacYSsaG5pW9eL8larUKqnYVMSYmMhlp8Ok+Hdl723S8znK2M4UI3wJdfWsQz3z2Nboc5SG2cmlNnCCv7zxqUL9wMGqjSlXUIQ+Q2j8JOXITe9Rr77zAClUblqLQYAdJoTb+7iC88/w6eO94Hf6GOMKBhYq7wgsGonBGJ7B36i3XS6gBZaCqryvr5p1wOUA0CZCHFI2MY6zVxctHDF5l4/sWzxzF7kTlQtc6jY2bpTAKZ3bsMtzOFo5tIhMP+FSZt8HlZiTYXKJ+JtEZJLJChsOYM85NwCVFnnv3rWdJ74VKGL78yje++Sc1SsNHr0rJEKNOiacDY8jua/43Qqhy0kJfmwwAaMoAXVLIYumWcXgS+8eYy/vLV81hk5KYB0KTPSIzRjkuJViSmEV8v0FDI5pOBNNga/h3u2SzyKzWaJoX3CU16RJ7QhMmqMGIVQDmT7DT18faZNp55+TRee4fJX5kZratcj9vUIP6MbIM+eA0NGhTWLQuSRkXC59DUXewA330nwbcPz+LiJWboboXSRseogILVeWWNWzXYOeUgbOhNIzVu8Hm5bB5pYNZAIYeKAdtiJkkDsCa8inB5yZhW4k1GrV96ZQqn+4zcEiXhtCDmIsjGDTZrdQ1izXIfNrrOI7wiiUCvn+HImT6eP3wR56Yi+My4E0oXj0RQ1fDJCLVshJpDu01JyiINj9wEYqcv91sbG2TCapSlXXaZHCc3ND2iUXtHg6OOhpzUVwlhwv466IUVvPx2F1/6Xh8XwjIzNuVmHXiMfs0VbYBWD7NpqkIilDBRK9PW+vJ6Tow3z4b43CsLePEYHWM/YGTjM5RWnpOi3JwgMC1qm8blGL1kywwsYv4yquYawBS94gLG1AFnbZeMabHLY4cDRqxK5n1u20gCw12PiZ/KStIkm013s25JtY2YU4iSmG2IVaeCFcmgElRdX/3QdeTK9bvaZf9JCjiU4GqbqWaJqUVM30K36ygA8AWQ2K1EWAOvHvs6x2p0gvrNUNubxb/89Ufx5P4Y9bTNswhkQB80UAO1sQhqrpD2qay1ZHmNMLu4rmI58ph6GyJhJv37X7+Eb73hYHlZNlkTYuosmVjSJJxnwUEa6jc52QpKtONxpAZoxLkYtBRjXDGCJrAYtpHJ0AwoUKl62Dbm4v5J4Ee259i7pYxKcwQZk8UxgtYgX3WccFKj6R7Q7/UISh9hGOLETIoXTqY4dWEJZ2coZCmTRqdSjG7HbC/brHO9YJwVhKyD+zW6IOtMdnplRqvsizqWJmq39q9Nrl8ieOpbxOO5g/Zsz94S/tXfP4iHtxJw9Zt91NSVmUUKkxa1DEHS90Q+jvlklRZoNVodIDJRY1kiDeekdPjPH+/iv375MGb6DcRpGXGnQ2YlCGoN+iGfQYIiHTaArfE0n8PGpWHXpMzx6ozyxqhxDUplykhokSZkGa0RHzsnR/HQ3hoeuW8SO0YdlNnoMgPX8SZ9m5Oiw2S3Xi3DUbIo8Veb7G8BEvlLIaDGsKNJRqdOBmjG89xCjud/MItXfnge07P8PauxXU2ezGiUYLk+tW3pko1eexQmNrIAivVJi1PZ9+sgJO2W75U/KoaocoyyDz/70Ul8+tEJ7NWUk7SbgAggASGAVmrLcMGLL56tQqsCRNbS7xQNlp29RBPz2394Cq8cOQO/oTmQJhkvtWdEY6PPg/EvmQB2VEszZJbU2bi/ZJJWqHFKUAIc3DuCjxwYwb3bAoz6fbSYa4xVcpQc2n1KY0ImppqnYVtc/iknS0zqq8joqFcj8VGdcPnHoWOPI2mHg3bs48yyj2+9OYvn35rDzCzb7EhI+iiP1NCbnzag/Ar7xPanNIsaeyvGDlWjytokRSj6L7B4DvMk9XFyq49/9FN346fu9tEq02ow8h0CIXCuNmfizdWmb0irAkR5gEOJdBi9UdbwzBkX//mP3ka/TztbC9kZmg0zH7y2rwUVCj373Mfw3IYGmT+wKNTOGI6WGh4mt1Vx394mHtpTxcEJH7saGUYDRUmKDms8VnMtZjNpFmroEoyM/VBtZe5XKJ8NOmGACAxdf0W/LLBJY1Qc1sNwOKfvTNwWzrZ9vHKqj2d/cB6Hj05T67YiqKv9NHEKmelfixlamttUgilBM5tl9a5NBTjydQoWxPck0o4En/z4Lvzq41Xcs407CZBIQIjWAmM1WkODWBmjM01mHV8s4z9+5QKO0bYbIIrxdYStF6BUJyFB0DTzFQNUhKLMrWnPD+z2cWjvBO7fXsY920vY2cjR8AWEuKwLsQMaBqYWxhSIUGbSD1CuaGKvCGd9k04CpsN1KI+VNJr/M4m0C5vPZJxAgFQlhSZku7Rmwivh4jJw5OQsvnvkPL5zsoHOwjKqY+O0BD1qTpfHUdBofng2gdWItKJT4/41SJyST2Egw1M9gpxQa1Oa+x37PPzak008fV8L1bLE7L00BEt0LcBWB0iSSPs20+7ga2/k+OwXz8BrNikt+oESnrcp+ZpiKLODPD0vUYIkJZL0HmrVDJMTFdy9s4VPHXSwd8dWjJBrZQ1QKbLgKU5QZVUOAVHHgEuMyC/MMAOmtuwZL2P7KEHOKN0JnW2pSYEYmDeemw7MhdCSaSocr/3EdhM4aoI0S27E5IBFgWjEi52dC/GHL/Tx0kuHURnZRQFgMKB5JmqyHcgw2nEoeNLo6wHkaOhLUaauT/OmaZmM/aIWue4snn6shX/4xHYc2qo63wuC2r9So9aK4lbdqzn3iD7oVLuM546SaTQTMgVyShntTs4SMwDoty+yUTRDDeY/WlPGC42OlvD4vSP4x09ux28+tR2P76tia8CQUxNustcyjzRpCY+VxCe0+T+Yz/HVoz08e7yD0+0AfZ+Bh5ZyEZzcr6FPcCSr6qL6KY1S8VSIBI8qfktD+AzxPWqEoSWQ2ENZLCqRzensmazh6QdHsWtS9XfYJTJTy7UGflLRZlEZy3WomFTUgeJLMbAqiZDwhr0ujl4IcXQqRBRpgc37wdb1hmUtWhUgN+9gucukdLqEE+e7qIySoT02XBWZ5tB8BSMIKqMMp+kAo1maxPO4Z4+LX/2Ze/Cbn96Pp+5rMAOaQzcjcJUR+LUWwQkQ0jxp5WiHHJ+m2Xn9+EX8jy+dw9deeodOHdgxyZCa0U839THddtChyRGQV3dBEjeMiIbSaYEJ8xVJjUMTTffI4LkoOkIsqvHnT+x38fRH72JYry5Jc4ggz3EHzLZ04BpMG5KNMLBl0sCcplgCKHMZ9y+xLRmm53IcPtdlWrIMWqrBWQVdMc/vDxpW0qomLs8W8L2TGT77gocjx8n8vAePQUGqfEUzpK6CgCY/cyaqFzA+EuFnHt2Fp39kEvvHmNa50jbacEZ1IRqo0HzIXKnzWuQ4G1bx6tkIz7x+Hq++fgL9ToiPP7Yfv/yJ/XiceYTHaE7c1IogbeT0E9KobOBs1bmVZUgyaTJlivw8tlXrDXRNq0wzuPRtylXkX98O6/it//0Ozr2rYwhOkJJRzONYQUaVKyK5a5NXJsKZBlGpifS5rqcIsY1o+QxqWyZ4zQncd9DHv/4JcosuYmSEgrpGOL0WOQsLPa3zMOnSlJzHCy3S/H7htRn832ffQS+ilgRb0JubRZnmS85Q1i7udhC4S3j4UAu/8slDDJlLaNYo1by+TUuw4Y4m++izFEzwi+UrJ+YTPENz9o3vL2GJITA5gW3ZD/CZn/kYnnhoDFso4b7lC2KsNFbLNGTGyDDLNQqA1qKh4Euy7fyVxPNkhiL2z6tE+KOXZvH/nl3AzHRI5uZkuJYQM/NnqJ4Nk6JrkECkUeRhKmyTvnNb80YWdhP4Fq3P3/nICH7jp6r0wcsU2HFGpTxcckFKeFjgskFMqFcjV0vY5EiVEZu0cvtcG3ibjV6an7eG6+KaVdTaak0F59k8du8O8AtP3Y9f+uT9TDQrGG8w+yF4amdCpqYChQ3U6picDZ+n1XjhRBuff+4E/uq1s1iYo6Qyae3Nn8P9+7fhwM5RNJQvqi0mvWwRQ32BY4OUBOhqjVmN9LMdYhusZ2VhXXYMN30nwv5tdYy3ymy36i1+1hyQ2nAjNFxHwbN4rioo8hmN3Unc9b3fS3B2JsbckqJfAWq7r5BdV+qxOpn1EwY+NJzOUJfIHj6d453zMhH0PQxVs1iLLMg9opeE89i/3cE/+PFd+Pkf24JH9vuo+5S4WGquPGhgaohUxuhOCy8uUeNeOJHhS69NM2FcxuwiNYf7o+4Mqt4cfvTeXdi+Ratl2FYWVxknayocq1pVMHYzSHy0WWjWumO8he0TdVTrGv2QLxBCMsfX154bpYSpw8WZJRx/d4nfaoXTV9XqkuGqa61NzM/o5MhRrVUWtUMGB6fnMTOXwa8qTyCjqAXF0qhlHDo4hr/3xD48dX8TB0aAkSDiMUu8pgAdSNSgbwlFteM08dwPl/AXL50i8H10YkZ8wTiZQZCyNu7d08C9e8cwSoWTVXMVhpvBVTQkTm4eOJdJVbLf2xiM7NtaQ7MuiRc4vKotaWYbNgcfswLzC138kMFCmJcLvZLmsY8Z21AAtPbF1CQeWySfTBEZWUWU8JAJlwZAW0w2GWITID+ZoRly8CtPP4RPPTqOrcx1Ssx5aNEt99BaMgGkoRa5QZlg3TryHLXxz188izeOzqAXlhBUR6mNWlzIjL/i4uEH7sJEw0eJ/JEW01ORV+wARd0PBozbbBJ/WG+dVe8dp++s0hTTOsg8pVHXorHNQkj1aoT95ExK4ZQAal/KHJDuRPyy66zdxyKjM4fIRI4sOj0TostM2Gw9s/dSvUHYQuzfEuKf/dJD+PhdDuhurE4BmkJrETSTyDyCzt2h9Cmh7dCsHTmziM9++U2cuaRlSYxwmPMkYds0LmEpl108cO92VCw4k2MlkzQBZaTr0+/Yv00k8sNuwGLXGfRj54jP4EYCo9+Ym/VpKfgpm7IZpDwpZX3TDIgWLJCVIDAcZzeLtIl/FOavQQVA1hgHbbb7h+c7uDB1iQlbB16QMFqbxsE9Af7tP/04HtpKcAijgZBrTWmJeU2ASKPIupCYyYyww9Dk1RPz+JNnvo+zZzroMCAo1SdQYagZdRbQnj6FwI/wALVnTMuyzaRQSDQeZmZN0RA/BkzS4GexEH7jpGqLQSlN1YfUXo8mTtEJAxGBp/Bcw1iDa2+ULDahOVkMA0wv8AKpXIm0RzkUw3kZvXwwSrIKSUStcRkbPE9Xc/zCMjVIk16M1qLz+Mh9NfyLzzyECWbi0hfrIuvUaSVKXcCvLqM7ZZOaFg7J4KMzOb5yeB4/OENWMKIpt8Z4tM+ggJ0ngLXRMTQaAXYQnD01B6USmUOfpGhNQ6+pemXfua0OyWmLs5tAMgwKshKtv6FQaI5JAPllDdhKPjQRObilYVOI5ozt74QOzl1kAKKRCqqrFFbFmKnxyDXI9Ecwy1x14xwXF+h/Mg/VZhUH9rXwcx/bhYMMBvJ+aGHEsGOaDpYpk7+xOxzIwIR6e3qqj+cOn8Phk11ayF1MzDSEzygvUX4gqVEu5dO8+dg5VkY96bMRuUl1xPo0WCptlHW2prHewPPeN5u6blI1Mi+2QbGkU6hWBVBVfCM4ujns/WNn6yWLbNPIxgFn5rSwRtanAMiI/buW7Lka0s89BQk5zpwO0emO2UTZPXs8/OzjB/Dwnioh6TMMDW3YX4BkGlDU4JYiQNWukQNq4Rw176uvX8K3f7CAKGHSZ/lFzJrb9C2hSa5GjbN0iXUu4u59o4ip/tKcYoCT4S5LodZFw6WVGlHIqZnS380oDrWylJNZFAiLpLiNbIFtlSTL3MlZ8OrmhzdWNKCskZc87eK1CyEW6LNz8i4gL5Xdqas6dC0iL9hIaplisrffOcd2lbBvbws/+SNb8fjBElrEQXg7TB6UH3jslOU51hkCJBGnk0v5eYT+63snF7EwTzYwpHSYDBamSsMn9COM3LRtV2N9tVH6vaCEPg+LKWFaz6Dk1dZC87ukLtIMLL/3N6vQSrQJumZYw6SJWUarESXa10hCqcI2B2wrAWNLxbcNFwqzpwX2eYTppRyL8je8vk9eujLfFs1JFFcnp9dd5q90YlSl3/ovz2Eq3Ymf/NFtePqROiaZJ2gmw4u1IEKVKHnUhJpMFc+SQ/W1QKOGU50u/vSbF/HisVksd2UGebLbNxMl/+5qVlGj2XYLSR+T20r4+aceRIvC4TL5pQ1Ue9Yki0E2gxgApPURBOyTpr6X0zJefaeNY6c6NNH8LWLCHRMgGwnZhIsScNOQbBH1se343V/biru2aLRCkbL4YnrEK0ng309Od2mOXK/amq7f/oO/xL4H78enn9iNe8eLxslx+txU9KsxNjPUVqU2FQQwpGaG/PlXZ/G5r5/B/GJkTjbPtaZfU8CUSJ5S3FjF4CPUaK9Wn3bRHK0wrOV2sI1mQKJwDSouuQmkNlGT40UKWEjfU0eUVtnGSjH4qcUksdZU18jA1Zn21yICpGs62RIqra34nV+dxEEK53Dd3HAkey2A3DyiA6PJnSNOO7ZP4Ccfm8DdBKdMxxYwC6aAs5Kh/RZKJg78FDhEP61hjpr6rdf6mFuUNhEQhtl+ic4wZerZ7SHta/GIhoJ6BI9WvtVCfXwHMpdJa2MfgkqNjPKvX0qbUAiCX9sNp7wLiTtJk9dkBweLLdlbrUmIQgmi2LMZpIpoOfhhC2ZYtNBFPtsQMlr7YhqAsoSJOSYef/hu7G2lqBJtDVkLZRsA5YHSm/c5M0pYlz+8+NY0zlzo8Hcmtb7WIksaNBHmIWiQKUzZ3VLEhnXoWxZMg9K4x23NZMrmM5kjyB9MoRBp/Tjtrs2G0sRoUYvmtTSaXaq3UB3Zavs3hYiMjXDzM4kT86c2UCFwyFD+Yv/WItcplcEgAyMjDh6+awQTZYa0QkKjugxtZdYUImuIwvDRb4a+klMPFxkAfuPFWYJMf0NT51cq7LBDEHQcQ3ZqDkMAag61sl5GmeF7wE+X0qwF6FqbZtqoYY9rFTZgM4otFGEUqXETYSArljOAicM2zW2Hmq71e4pVrbebQGT+ACAthBRA5iVYvcKQa8NDgJQgZjQ7k8wltzdzlGJWltKx2eQYeyA/o6lkMlJ4W82auWRpM/o6Ot3H26d1pxl3sVhozdBZpkJ+RlfXtgZddZ9xsWqGDaMY2Ry+xNoiAGnddYousMGi/EYTjZqv0Zig8h6LZBkGZ1oDoYlGft88EvulReJHxvSD17qMSAFQcczq5HbouGl8UPOXUXKWbcIut2lmaogxRUFC4YEEfUQJ64Z6kBHQ7sc4cnKJ4SojokimQverUkJYhxZhpH3mT3I6DN2zmPUmChQYclIicia1HkVY0xkKNtSBaxXrhELCjRaxxFYdKXpi/kUTq/0axVbO5jCA0Gdx7GYR61I/mJ9oQeQQoOKjaNNaZINeWr6hQRY7jlm0cFEllglI6mij9aljU4KhouVfM+0Mbx6bYqBCLYw1QqB1ZnqmTkywVAfPIdBXbujVVLKYIg0kg3QNE1aNI0hD1y4aw9iMQvbwk23RtanFtpbPBEBJtTRZ5ojH2r5NIvFO+SDrDOXwtetyUfwmk7o6uU2qeYvZjosRHt0yPkoLNC8j9uZipEaqbV2ai3IpQKNSZPWnF12cPH2WTK6auciYR+SaD0/bPNGjGyue+mEdph/Kcy1u7PJTwQETXkaJWsNdOAMJwzWKumMjvxsrxhCaN5k5axPNt/Z5mpAkH3LdY6rObRbxsloaprsUlUqG4qozWCNOLdUYCq5xo9uqv0iSLD7nuUPSpvKC4rkFHjrMm6YWNZ2teXyaLlMHHjNktvRvs8bP/hbT6gARHCvaHhQBYCZA6kqtmu3EeOdCmwDpTjT5GZ2p82TGZMJ4rKzaHdoQra1booEm2Ap+BhNSEllwGazZdoIzUzRljNFtuGJgs82/mOZIg2zXHdoArcnCgt0kM11yplphUwCkAGFWU+NzWi6kKEgHcqc+CZAy8kLjtP8GSJe4TUvxZ/20KkBWr20Mt6RFgqb4FjJVmGMS1O8KBIGhsFR6pV+VfLJaO6045/p05Tq3X9kYXVODCrMlEJQ7XDFxnTBFuxsWX6glunXEbiNRgqeDGC3ZxwDUv80kDm6E1tSg99U80IaE+7v9iMkqtcYCApk/Bo+6O4CICVS722wA0g0RjyvOu/3KRmlNDTKy+ocXKQ6VUvT1SOSYWZFCcalRpuzbfhWntVEwXQdf3cihX+J+3U+j2yg93eXmO7dl0a01Vph3lSx+0vDOSraTP9fw1WvcwKUqmL5p6tTr2XIsP1MymyPlhV4+0cUff2cWrx/TExNJK6MBbuubVUqt03N97Ikd3OMHiuwcRD1l6gnuP1DDWOcw+qP32W0mtyMFNCwBnXYStTExWsLHHjmABw7V0WJeXKT+GmQWrd7/6wPkdhExUrsCUIbnj7XxJwTo8IlB5asAJJLfskdllpsGlnv5LjYXrdEq/u5P7MIndiSoVXjOyjpuI9IgGmNdaHFumRqkZWZ1po1aqFncKacZZvZ/jaeyXBMgu+nTIUBegCDTE6RzxIzWnj2ygD99bg5HtaxKJ1wDIN1iGNTGbKCwuA2fl6N5a474+MxP34XPPBIUd95ZxHH7kRa79JV2cFuiqVE3G2UaBr0iMswmXleha/sg1lBEYlcw1P2hSZpC99HcEOniNjykQi201UAuon4PizNTKOnh6BoAdLT/9it6jKebzqCCJZRAl5B2obsTU829iITACvm+mlYF6AocIoI02BqS1XeNSleSzbso2hsUm4PR7YbEfXFJE2ckap0GeW/LomW9mYZEi0IvrFiXu8hXBkeSzWupyRo/DUGRb3jvIbpFIyCTfZbrE1u4kjRXZHM/NKOpg7nlBMspJY37XAYNt2PRM0wdZ5Sg1FnoZ+w5PwyaSgwRaOsiuozYlelfndbQIP4jF815UQOKfcUfj5BXqhVUKqs7tfeSZhG1Jk4GV8DoKfGhTStH/RxnZ/s4s5wj1Awr674di+636oeOrfngV1tTqBvaLmsS+cJQyri1Gq0OEGu+kmRRC7hpF6Bd0l6BU6ndQFisxtCUZXreWq5kNta7KWzdgiK7+baHI1NAO6NPoo+6HYtW3VRpJLT4RszW63xk6FQUMGgdraeVo2vQqgAZXQbIXISskAwq/yipdFGyZ0tfm7TmoDY+bqtltPZAbyQpprglAB7aiyHePDPPHCHSU6pvz0KhDAJNCqowoec+l9LuaM1ARKASn/kQEVyDVgXIpxnzNEqgaQOnDD+XzyE+jkxWhl21BPvH6TcIQKbHCuZlAqCoRDkPXaHMH1G118SENGt6do6Gf+xmYtpei9xCBNUmXjk6j6nzF4r3A1GeItaXdpaR9bR2mmmcnvphq2wkZR9c6fc8xLE/mLZXJKv+UbiSLrSWMNfqHO7Rug09OyKL2M7MR8hzErY3kxXKFlm0qknCrFLUXQRLRbGnIvP/WrQqQJakSm3sRFakPY5spUxWjpqfoVWiJDBp9Uq6K4DVSCsUAPAYW4NgJxc+SPv1vZjI47E2p8yuBQE6SxFefNfD6Xnd8qKr8Ry/hjxoCmOaBIb1rLR4bc0HVzTycWVLPkOLaQLmNXL0KmVQ7uhTNRrA47SsiycYj+xE8kDPz7Z7f3TEsPBHHXhZAYpda5HOuCGygGFFkU0NGCYGMnWKJ8VaOvtMT4yylXkEVjb4BugbR3O8dlYj5CaPVLIyYqkswdSDmgT0tTpxM6gU6BlBMkkCShpRonaXEfIzVB7H/jvUlMDeyMI2+7QSTps+VreFyldLsxoUzo0NYd0wQKIhOBokbZQ9jDQFim5dkcZoXYK+U5MUqrDq4smG16dzp/r4ztEuA4bMTB3ZoZut0WFwo7tW9foBhawfJDl64JON0LMv6o5kjl+Vtxf6Lwc/+E2FJBsjAcsYEMUU1EgrZk2d1k9/bYAEjj63tirYt62GsD1vNlW3VBSTd2yvjT5cR3dXkBaivHV0Bl99YwHHLmphexdB1kany45q3ZoeGSa/9QGSelAQ+8A+iVF6HHidil13E1Tpb5NoAWnSR6pFnGkVS2GNAlWl/9ItMwwKeOz17gm4Hq0K0DDMXhluD7VnCNLkaA0P7Gkh7s7YAKj8i0YJiueuFf7IcLoB8sqFo33t8Dl86eVTODMvjnjY1gqQdDqIdWfeDWrjZpFujtY9uGKRUgUhZj42lbB0aN7aKLF9abOGGarTsakc335lFpfmJcB1e1ee7ysBla6tn9bUoJXgiFYCpDJWB+7ZXkazIWNcNMKiEjo+JaS6zX6lHF6LskTmiyF43MOLb13Cf/raWbw6VaF0MhipMlitUBCkSR8oyWwTHKFjg7wsCgRsyIpBjDOKRTRwZCHHn724gP/+Z2/g8984gktL9D4UUq15U59yG8teP62pQStJgFxNJTZgWyPFwUN65lpxC6UCF00pqDPFM6ffW89apEX0GmFI6Lv6eQuH33Xxu58/gq8eTbFAR7zMSFXrID5IUjf0LlV7UKHGzNjGxAvYnhJOLAf4/oyPP/3OJXz2iz/EV186i7enQizzN7810BkC69uC0I3ZuGtq0DUpj9Aqp7j34F5qgPIcTT3wHEfT3gqtE9OmGyHdpVdqthi9jhGkMvpdHxcXmvg/L/TxR99cxIl3LtENdQdHfzDkKCkfPB4gJ8uX4hinFkI8f7yDL3x3Bv/rK+/iay9ewtuncyz1GkwN6ujTN+mBtnbHhuQ0rbCejWn+6o8jG5i3oeaspkF52mYSGuJbc1vwO//zbeYEPJ5RD88sfI8AVr7DRPd6pGhcix+VY2X2LkyX+VWdp6doVLu4e2uGR/aXcdeuFiYnRjA5VkKNoiUjJEFxKa1KKxRXFfedF7SaiJlSU1uLGIbm2nKRQSGp6aI089CmdbrYjvDufA+n50KcmYlw5lKEizMx8zdZCdYX6HabEiO3PtOOJfy733gUd7VomuWLFdWq6jXV4Pq0KkA3QnmyzF6EOI0J/IfPT+Gtty8xcpEOUWIsaNA7D3o0ebrX89p0XW0l1RsRdoz72LdrHPfuGsXusQCTTaAVZKgFefEuPTHckuFi22hQtQTHhI5C4GouhlKhOwSFrJ7qqecVdvrMxaKI5jTG1KKLi8spQenj1MUeLsyGaC9pHkz1am5L5+qOCNXLi1MqK/THv/frO7FrvIGqNUNXXdGWddD6AZLfSSO03SYTzQx/8IXvo9PTW4MpTanG2yjLlZoNlF6PbgSgYjiJDNYzUSuZvVfuvn3jOLBrBBNN3xhSc0O0fCaLZLzPgMWeyCjxJYPUHj2hXmDM69Z4RoUxwbLbaHQL6DwwPdvFzGwbS8tdHDt9kqDJuFWYh1fJaGq4+RMx20wE65CFUCBxCwKUsnMKO31GNh0G+//899/A2bk6cwOaKQKkh0F4pRaS/tzgjLXpRgByPd3Uy9SQQiHN1KMnlRsJiEq9iqqevV0ncM1+8TqdShWVahWlkhb3i4niYYowSTFNdel2+5hfaGOR5ktP0peJzjM9Pq3M4317rIDdlaD8znI8Aa226vGXero+fa7dJaEE/RYESMsVdG9NYK9iqeGrx3P8ty8exSzxcAOGoQRQN+wmfYrmdeiGNMjR4go6X5NYnkNt0hN7i/yLwkCBkJakYZ9gUnuUkxE8Y5O0J9Xj/pXHMIjRDCd9jz0fjr5C0aZ0RZqhAEcKUmnt4HdGl3qoYKz7nhKeJ2BoESytkN8jMDcZINa8PtJLbRl58uIVRl19PLbXweOHGqhRijO9ziZhLNNfHBy9cVLQ4FX0dhWaUQYUGmj1qwxrq5TygCY1n2db6KireudczRinWVu9ZENFc4bFU3kDexiupycL019mNGNJKACK8EAvDPFrZfSWptBbOI+oPUursET+M0EViMZssY0BwPrZd8O0gSvIH9DUUYr07oMRRnA/9/hOHNxDe513+GuMuK+h9s2hmI4iXOgx3KZUJvQFGbU01hOHKcF6u3GmUXWPzGTCG+luckaZ/NQdf/YEKyY2HiMJeyhweRFuaZnhPUN3TxohrdJAL01bnz5UJdbNZnokTJ+Y6I5BwqH3PFAwihET+bFbGiBJowW6tnLSR4RD2z18/L4x7N4ZcB8jnCIQ3hxSTCsTQ3Mj7XRQhh4N7QVb+OMIwagxZlF0JZNFrVKA4OtO8kHRXet6Gof1mKBBobZWxBbTBC77In/j0SK4DAr01Cs7h3VZnbQYCtw0fzOslyeosptK678Ce0U3gzzU83toIvjdp/3+6IEGnrx/DK0G4QnW//bDqymgOSvVyTzduk9mSepdaUSZYDDRtdflaJzMcq+BtOtWf5XiMSk8JjVTlkR6pYHe6qgcrRjkVYKkG4jhMflx9aoAvS9I77CTyjF1MG2RR+G1lLxaEluYxZtJ6wZITWMTaQqU4dPGZ4VD3T0a4GOHxnDPviZtvZwpXaU6Yp2Ss5Zz177Bpclos5X2Z7UyIJmUoE6GKzEkSNSANFlkNKfnetP/MEnMsVw86yBUlEcTxZJrlIMpgb1jwgo1MKL/ifX45TqvoJumpRrMcQhwHC0g6s/wNwYS/E3P+S4GajWzy9268Zipg2aLC3yU8/GDAqBPSwXUJQkvD2BvddC6af15EIsuLTbrRUbao6UQMVupp8ofPbmIz339Vbx6YQ871OFxbGyqB/SpswxlyWQniPip0WFK6RCwIQ0iuxuK8P6GSO94kPnTgKjC71qjin//i9tw9w6aXnZJD/dQuF66gWR9LVq/BhGd9y4uZdJni0JSNgg4tH8EP/fTT6LMhjdHRghGBX6zhsaOJqoThCuntPcixMtsvM1KfvgojbXghRpM36iVs1qgWalTIxnDmHumedRTvjZC6+aMTLKCg5WkW/TLmgan0Gti65G7yvg3/+RB7BpLzZ/meYkAqmOMirSyMotRqtLMfADO9maQTHhQki+ibUuUh2mq3sFiGCKMC+nVio6N0IY5IwOkV3/ZhkCjSnspoyPmQnrs8aO7Hfz6p+/GIw9M2mPN4rbypAoDiBaqoyNI9eTDDdrpvynSw271YkM9AN7zx2iuG1Qa+q0yoz4KquRXvmgjtG6AzMQpSiDJTShA0OiBWkRPA71gqUxHXnEW8JEdDn75Y1vw5IMtNGvFi6PMDzGh1AsKV8YCHy6q0oq0KGx6qCsTjW6Erh5/o2TXLIR4sjHhW78GKULReBQ3lXPEtrxK4lLkIRoj0/48qaISt/HE9gi/9BEPTz1SwvYdOpfJZFurTZs84ypb+SEhvbTQcesWMdqYY7KEpNOm9A7VRlMnAyleJ60bIN3Kp5dS2HaRwdFQidHFtg3759ynXIMha85w+IHtffziJ7bg0z8xiT07c/jMN3Jp0weQT9wUYuRpT6oPz6NWuYgDezxMlNmvlP1m35XUOvYo0fXTusNsts6KrRglWDGdouZXtNZeWq0HX2ioX1PHuheopPcOEbPYKWMh9nF8OsdfvXoWr3zvBObyCdZ01czjhyDM1oL1ajnEnvEYD+5v4b577sWn9nThlpsQV12veDv+Rqa9NwYQTVzCxM3Tk3vpLKXZunHWEjYCo8FkJ5xCVt5uT2bUQHCVv8ntiGYJ6uunLuD3vtLD0sJVWvQhAGjv7m34xENb8OP3AwfGKKSMlRpLZ+HW9yAkJjJweh+FHmy9XtoAQCKeqrOJyGU+FlbPyDY1gkCTZz/zj/YJQBGTboajCc62Ozj2bgffP7aMwyciTM+49jJdj0g6nlZsalSAJ2UyGRpnkxDwu0tQKQnF++PIHe5zLesfXEDjaDZEY1e1czRMo9GPYnWOTLGOL6YMiiXMViWvXbdhJb2PLmO+k/ZnyexlTE6U8dC9e3Hort14cHsZOxpOcfcCT1Uf7e0tmrfiJfVdaSyvzK310QYB2hxa7PbQz8uYC12cmsnx5ukIb74zjXMXLiEigA61Ms+b7DEz94LXRTFS81n4XUtubZxl0CMbYrIN/R/s5C499NYGU4Ni2puw8gACzUhUtyZqOMp1Irsrvd5w7e7sPZN1HGCSfYCf20Z9jNb0ah7YK0FvJt0SAGkRumILDSh0yMBLHeDdmRCnpto4O93D3EKIc3M52l0yl77NxsPIRPk/aUUx2ClpZ4dMqwSHUBluF5/8YxfygjGCIc3osZ5iIlAveK9WfdRqviXcu1o5Jkaq1JgWtm+pY5KgjDOxa/C4sqOJSk3YSQN50ZtItwRAunPFlMLR7CwtN5mtLGop9HB+PseleeDkTB+XlkJ7wkm728dyp8/PyJ4mr2RRU/B6l7fdZkggpE3SNk0TFAOZ2sfqfRetht6EJSanqJUyNOkYxxo+tjTLGGWplX1sL6UYp5psGanYmyN145VLM6qoTeOKUjq9vpqJnLpw0+gW0SAxS4zUApPBlDLtuL2iTYs7tJemnTmgXsyPxU6M+eU+5plH6XO5F6HHA+YjH/Oxxr8IBAFRkBK4zLIY6urlHIowKyy7qxlqdByjrSrGR2oYa3loEgT5EpuZ4PWybhdlzfvYtLmIuZsGheXrTDvVRI2Erz8AuBG6JQBKCIGFEbptRUUelgw1KSVXxRJ7z4GNVGgSjUyhWUt5iCIn4jtYI8FT+UdmzyfgAkTOW0w3xovzYv/lqY7io/hkBVYKk+jYLTXDk3ROcbDMaixfRVNbog+TRt5MuiUA6mXLlHiPsRSDADLAZi/EbE01lxmhEcIsiqlYNFNeUEiuoi8yT67FWKtekIcFCLb5nlJUyoP0fxDxme+iD8m5PYTnMkw0pcXSrSsA6BImP9zQdczsWeU3j24JgIrhEDHJnj1sjBj+kalyyZGY25Tr4p+Yy392DMvQ/2tgw14rupL0I4vyKf3TebkOlCBwW3UOTlcTLpMMm77aUBp/lNkUGKpO+zUOyQDQ9t9MuiUAsnuz1HlPN6TTERtMGqGjttCO6THWevi60hQxx9hKjRBwhYeQf+B+C+N8O0IkzbBP+3vl0+6RJVn8wH8atrK8ysxYcY6mwIvjCaM2BKjUVBcaHGOPKLjJKnRraJDwIOXGFIbQxhpjnZk8c0JEwvhnvxjH+Jt0QDTsAr9dTkwLWq1z5uwHpCN1pffRANzLJGDssvwz/E2fVx+3yXSLmLg7tBbdZAt6hzZKdwC6xekOQLc4OfPzumP3Dt2qdEeDbnG6A9AtTncAusXpDkC3NAH/H7QAwkDGs3q0AAAAAElFTkSuQmCC;" parent="1" vertex="1">
                    <mxGeometry x="67.3" y="150" width="55.41" height="65" as="geometry"/>
                </mxCell>
                <mxCell id="8Htt1fXJtcJN40JPZz6O-4" value="Client" style="shape=umlActor;verticalLabelPosition=bottom;verticalAlign=top;html=1;outlineConnect=0;" parent="1" vertex="1">
                    <mxGeometry x="80" y="65" width="30" height="60" as="geometry"/>
                </mxCell>
                <mxCell id="8Htt1fXJtcJN40JPZz6O-9" value="" style="endArrow=none;html=1;rounded=0;" parent="1" edge="1">
                    <mxGeometry width="50" height="50" relative="1" as="geometry">
                        <mxPoint x="10" y="280" as="sourcePoint"/>
                        <mxPoint x="820" y="280" as="targetPoint"/>
                    </mxGeometry>
                </mxCell>
                <mxCell id="8Htt1fXJtcJN40JPZz6O-10" value="Middleware" style="swimlane;whiteSpace=wrap;html=1;fillColor=#f8cecc;strokeColor=#b85450;" parent="1" vertex="1">
                    <mxGeometry x="55" y="330" width="80" height="200" as="geometry"/>
                </mxCell>
                <mxCell id="Baj63w4YLN0AryvcUAam-2" value="" style="edgeStyle=orthogonalEdgeStyle;rounded=0;orthogonalLoop=1;jettySize=auto;html=1;" parent="8Htt1fXJtcJN40JPZz6O-10" source="8Htt1fXJtcJN40JPZz6O-11" target="8Htt1fXJtcJN40JPZz6O-13" edge="1">
                    <mxGeometry relative="1" as="geometry"/>
                </mxCell>
                <mxCell id="8Htt1fXJtcJN40JPZz6O-11" value="next()" style="text;html=1;align=center;verticalAlign=middle;whiteSpace=wrap;rounded=0;" parent="8Htt1fXJtcJN40JPZz6O-10" vertex="1">
                    <mxGeometry x="7.7099999999999795" y="40" width="60" height="30" as="geometry"/>
                </mxCell>
                <mxCell id="8Htt1fXJtcJN40JPZz6O-13" value="() =&amp;gt; {}" style="text;html=1;align=center;verticalAlign=middle;whiteSpace=wrap;rounded=0;" parent="8Htt1fXJtcJN40JPZz6O-10" vertex="1">
                    <mxGeometry x="7.7099999999999795" y="140" width="60" height="30" as="geometry"/>
                </mxCell>
                <mxCell id="8Htt1fXJtcJN40JPZz6O-12" value="" style="endArrow=classic;html=1;rounded=0;exitX=0.5;exitY=1;exitDx=0;exitDy=0;entryX=0.5;entryY=0;entryDx=0;entryDy=0;" parent="1" source="8Htt1fXJtcJN40JPZz6O-3" target="8Htt1fXJtcJN40JPZz6O-10" edge="1">
                    <mxGeometry width="50" height="50" relative="1" as="geometry">
                        <mxPoint x="390" y="380" as="sourcePoint"/>
                        <mxPoint x="440" y="330" as="targetPoint"/>
                    </mxGeometry>
                </mxCell>
                <mxCell id="8Htt1fXJtcJN40JPZz6O-14" value="Middleware" style="swimlane;whiteSpace=wrap;html=1;" parent="1" vertex="1">
                    <mxGeometry x="150" y="330" width="80" height="200" as="geometry"/>
                </mxCell>
                <mxCell id="8Htt1fXJtcJN40JPZz6O-15" value="next()" style="text;html=1;align=center;verticalAlign=middle;whiteSpace=wrap;rounded=0;" parent="8Htt1fXJtcJN40JPZz6O-14" vertex="1">
                    <mxGeometry x="7.7099999999999795" y="40" width="60" height="30" as="geometry"/>
                </mxCell>
                <mxCell id="8Htt1fXJtcJN40JPZz6O-16" value="() =&amp;gt; {}" style="text;html=1;align=center;verticalAlign=middle;whiteSpace=wrap;rounded=0;" parent="8Htt1fXJtcJN40JPZz6O-14" vertex="1">
                    <mxGeometry x="7.7099999999999795" y="140" width="60" height="30" as="geometry"/>
                </mxCell>
                <mxCell id="8Htt1fXJtcJN40JPZz6O-17" value="ExceptionHandler" style="swimlane;whiteSpace=wrap;html=1;fillColor=#d5e8d4;strokeColor=#82b366;" parent="1" vertex="1">
                    <mxGeometry x="240" y="294" width="145" height="236" as="geometry"/>
                </mxCell>
                <mxCell id="8Htt1fXJtcJN40JPZz6O-18" value="try [next()} catch{&lt;div&gt;kjasldkfj&lt;/div&gt;&lt;div&gt;}&lt;/div&gt;" style="text;html=1;align=center;verticalAlign=middle;whiteSpace=wrap;rounded=0;" parent="8Htt1fXJtcJN40JPZz6O-17" vertex="1">
                    <mxGeometry x="8.70999999999998" y="39" width="60" height="30" as="geometry"/>
                </mxCell>
                <mxCell id="8Htt1fXJtcJN40JPZz6O-19" value="() =&amp;gt; {}" style="text;html=1;align=center;verticalAlign=middle;whiteSpace=wrap;rounded=0;" parent="8Htt1fXJtcJN40JPZz6O-17" vertex="1">
                    <mxGeometry x="7.7099999999999795" y="137" width="60" height="30" as="geometry"/>
                </mxCell>
                <mxCell id="8Htt1fXJtcJN40JPZz6O-20" value="" style="endArrow=classic;html=1;rounded=0;exitX=1;exitY=0.5;exitDx=0;exitDy=0;" parent="1" source="8Htt1fXJtcJN40JPZz6O-11" edge="1">
                    <mxGeometry width="50" height="50" relative="1" as="geometry">
                        <mxPoint x="390" y="380" as="sourcePoint"/>
                        <mxPoint x="150" y="385" as="targetPoint"/>
                    </mxGeometry>
                </mxCell>
                <mxCell id="8Htt1fXJtcJN40JPZz6O-22" value="" style="endArrow=classic;html=1;rounded=0;exitX=1;exitY=0.5;exitDx=0;exitDy=0;entryX=-0.028;entryY=0.514;entryDx=0;entryDy=0;entryPerimeter=0;" parent="1" source="8Htt1fXJtcJN40JPZz6O-15" target="8Htt1fXJtcJN40JPZz6O-18" edge="1">
                    <mxGeometry width="50" height="50" relative="1" as="geometry">
                        <mxPoint x="143" y="405" as="sourcePoint"/>
                        <mxPoint x="240" y="390" as="targetPoint"/>
                    </mxGeometry>
                </mxCell>
                <mxCell id="8Htt1fXJtcJN40JPZz6O-34" value="IRepository&amp;lt;Person&amp;gt;" style="swimlane;whiteSpace=wrap;html=1;startSize=23;fillColor=#fff2cc;strokeColor=#d6b656;" parent="1" vertex="1">
                    <mxGeometry x="614" y="582" width="180" height="80" as="geometry"/>
                </mxCell>
                <mxCell id="utbc3hTdc46kDS6MjCx3-10" value="person" style="text;html=1;align=center;verticalAlign=middle;whiteSpace=wrap;rounded=0;fillColor=#647687;strokeColor=#314354;fontColor=#ffffff;" parent="8Htt1fXJtcJN40JPZz6O-34" vertex="1">
                    <mxGeometry x="105" y="40" width="60" height="25" as="geometry"/>
                </mxCell>
                <mxCell id="8Htt1fXJtcJN40JPZz6O-36" value="" style="endArrow=classic;startArrow=classic;html=1;rounded=0;" parent="1" source="8Htt1fXJtcJN40JPZz6O-54" target="8Htt1fXJtcJN40JPZz6O-34" edge="1">
                    <mxGeometry width="50" height="50" relative="1" as="geometry">
                        <mxPoint x="570" y="1043" as="sourcePoint"/>
                        <mxPoint x="580" y="830" as="targetPoint"/>
                    </mxGeometry>
                </mxCell>
                <mxCell id="8Htt1fXJtcJN40JPZz6O-41" value="" style="endArrow=classic;html=1;rounded=0;exitX=0.023;exitY=0.597;exitDx=0;exitDy=0;entryX=1;entryY=0.5;entryDx=0;entryDy=0;exitPerimeter=0;" parent="1" source="8Htt1fXJtcJN40JPZz6O-19" target="8Htt1fXJtcJN40JPZz6O-16" edge="1">
                    <mxGeometry width="50" height="50" relative="1" as="geometry">
                        <mxPoint x="430" y="505" as="sourcePoint"/>
                        <mxPoint x="330" y="500" as="targetPoint"/>
                    </mxGeometry>
                </mxCell>
                <mxCell id="8Htt1fXJtcJN40JPZz6O-42" value="" style="endArrow=classic;html=1;rounded=0;exitX=0;exitY=0.5;exitDx=0;exitDy=0;entryX=1;entryY=0.5;entryDx=0;entryDy=0;" parent="1" source="8Htt1fXJtcJN40JPZz6O-16" target="8Htt1fXJtcJN40JPZz6O-13" edge="1">
                    <mxGeometry width="50" height="50" relative="1" as="geometry">
                        <mxPoint x="162.71" y="487.38" as="sourcePoint"/>
                        <mxPoint x="122.71" y="487.38" as="targetPoint"/>
                    </mxGeometry>
                </mxCell>
                <mxCell id="8Htt1fXJtcJN40JPZz6O-43" value="" style="edgeStyle=elbowEdgeStyle;elbow=vertical;endArrow=classic;html=1;curved=0;rounded=0;endSize=8;startSize=8;entryX=0.5;entryY=0.5;entryDx=0;entryDy=0;exitX=0;exitY=0.5;exitDx=0;exitDy=0;entryPerimeter=0;" parent="1" source="8Htt1fXJtcJN40JPZz6O-13" target="8Htt1fXJtcJN40JPZz6O-4" edge="1">
                    <mxGeometry width="50" height="50" relative="1" as="geometry">
                        <mxPoint x="400" y="490" as="sourcePoint"/>
                        <mxPoint x="450" y="440" as="targetPoint"/>
                        <Array as="points">
                            <mxPoint x="20" y="360"/>
                        </Array>
                    </mxGeometry>
                </mxCell>
                <mxCell id="8Htt1fXJtcJN40JPZz6O-54" value="Database" style="shape=cylinder3;whiteSpace=wrap;html=1;boundedLbl=1;backgroundOutline=1;size=15;fillColor=#d0cee2;strokeColor=#56517e;" parent="1" vertex="1">
                    <mxGeometry x="590" y="716" width="80" height="100" as="geometry"/>
                </mxCell>
                <mxCell id="8Htt1fXJtcJN40JPZz6O-60" value="DI Container" style="swimlane;whiteSpace=wrap;html=1;fillColor=#ffe6cc;strokeColor=#d79b00;" parent="1" vertex="1">
                    <mxGeometry x="70" y="645" width="307" height="123" as="geometry"/>
                </mxCell>
                <mxCell id="8Htt1fXJtcJN40JPZz6O-70" value="AddSingleton&amp;lt;IPersonRepository, PersonMySqlDatabase&amp;gt;()" style="text;html=1;align=center;verticalAlign=middle;whiteSpace=wrap;rounded=0;fillColor=#d5e8d4;strokeColor=#82b366;" parent="8Htt1fXJtcJN40JPZz6O-60" vertex="1">
                    <mxGeometry x="27.71" y="40" width="240.29" height="30" as="geometry"/>
                </mxCell>
                <mxCell id="8Htt1fXJtcJN40JPZz6O-71" value="&lt;div style=&quot;background-color: rgb(30, 30, 30);&quot;&gt;&lt;pre style=&quot;font-family: Consolas, monospace;&quot;&gt;&lt;span&gt;&lt;b style=&quot;&quot;&gt;&lt;font style=&quot;color: rgb(255, 255, 102); font-size: 14px;&quot;&gt;https://localhost:&amp;lt;port&amp;gt;&lt;/font&gt;&lt;/b&gt;&lt;/span&gt;&lt;/pre&gt;&lt;/div&gt;" style="text;html=1;align=center;verticalAlign=middle;whiteSpace=wrap;rounded=0;" parent="1" vertex="1">
                    <mxGeometry x="106" y="245" width="190" height="30" as="geometry"/>
                </mxCell>
                <mxCell id="utbc3hTdc46kDS6MjCx3-5" value="" style="rounded=0;whiteSpace=wrap;html=1;" parent="1" vertex="1">
                    <mxGeometry x="1290" y="550" width="120" height="320" as="geometry"/>
                </mxCell>
                <mxCell id="utbc3hTdc46kDS6MjCx3-41" value="" style="edgeStyle=segmentEdgeStyle;endArrow=classic;html=1;curved=0;rounded=0;endSize=8;startSize=8;fillColor=#b1ddf0;strokeColor=#10739e;" parent="1" target="8Htt1fXJtcJN40JPZz6O-52" edge="1">
                    <mxGeometry width="50" height="50" relative="1" as="geometry">
                        <mxPoint x="320" y="390" as="sourcePoint"/>
                        <mxPoint x="480" y="530" as="targetPoint"/>
                    </mxGeometry>
                </mxCell>
                <mxCell id="utbc3hTdc46kDS6MjCx3-50" value="" style="edgeStyle=segmentEdgeStyle;endArrow=classic;html=1;curved=0;rounded=0;endSize=8;startSize=8;entryX=1;entryY=0.75;entryDx=0;entryDy=0;dashed=1;fillColor=#a20025;strokeColor=#6F0000;" parent="1" source="8Htt1fXJtcJN40JPZz6O-52" edge="1">
                    <mxGeometry width="50" height="50" relative="1" as="geometry">
                        <mxPoint x="440" y="533" as="sourcePoint"/>
                        <mxPoint x="319.9999999999998" y="483" as="targetPoint"/>
                        <Array as="points">
                            <mxPoint x="440" y="536"/>
                            <mxPoint x="440" y="483"/>
                        </Array>
                    </mxGeometry>
                </mxCell>
                <mxCell id="utbc3hTdc46kDS6MjCx3-53" value="HTTP Respons" style="edgeLabel;html=1;align=center;verticalAlign=middle;resizable=0;points=[];" parent="utbc3hTdc46kDS6MjCx3-50" vertex="1" connectable="0">
                    <mxGeometry x="0.0865" y="-2" relative="1" as="geometry">
                        <mxPoint x="-13" y="-14" as="offset"/>
                    </mxGeometry>
                </mxCell>
                <mxCell id="utbc3hTdc46kDS6MjCx3-54" value="&lt;font style=&quot;font-size: 14px;&quot;&gt;&lt;b&gt;HTTP Request: GET, POST, PUT, DELETE&lt;/b&gt;&lt;/font&gt;" style="edgeLabel;html=1;align=center;verticalAlign=middle;resizable=0;points=[];" parent="1" vertex="1" connectable="0">
                    <mxGeometry x="476.00445816186357" y="371" as="geometry">
                        <mxPoint x="-8" y="3" as="offset"/>
                    </mxGeometry>
                </mxCell>
                <mxCell id="Baj63w4YLN0AryvcUAam-1" value="" style="edgeStyle=orthogonalEdgeStyle;rounded=0;orthogonalLoop=1;jettySize=auto;html=1;" parent="1" source="8Htt1fXJtcJN40JPZz6O-16" target="8Htt1fXJtcJN40JPZz6O-13" edge="1">
                    <mxGeometry relative="1" as="geometry"/>
                </mxCell>
                <mxCell id="2" value="InMemory DB" style="whiteSpace=wrap;html=1;shape=mxgraph.basic.document;fillColor=#d5e8d4;strokeColor=#82b366;" parent="1" vertex="1">
                    <mxGeometry x="717" y="716" width="100" height="100" as="geometry"/>
                </mxCell>
                <mxCell id="12" value="" style="endArrow=classic;startArrow=classic;html=1;rounded=0;" parent="1" source="8Htt1fXJtcJN40JPZz6O-34" target="8Htt1fXJtcJN40JPZz6O-52" edge="1">
                    <mxGeometry width="50" height="50" relative="1" as="geometry">
                        <mxPoint x="530" y="980" as="sourcePoint"/>
                        <mxPoint x="612" y="877" as="targetPoint"/>
                    </mxGeometry>
                </mxCell>
                <mxCell id="14" value="" style="group" parent="1" vertex="1" connectable="0">
                    <mxGeometry x="432" y="419" width="542" height="115" as="geometry"/>
                </mxCell>
                <mxCell id="8Htt1fXJtcJN40JPZz6O-52" value="" style="text;html=1;align=center;verticalAlign=middle;whiteSpace=wrap;rounded=0;fillColor=#dae8fc;strokeColor=#6c8ebf;" parent="14" vertex="1">
                    <mxGeometry width="542" height="115" as="geometry"/>
                </mxCell>
                <mxCell id="3" value="GET: \person" style="image;aspect=fixed;html=1;points=[];align=center;fontSize=12;image=img/lib/azure2/networking/Private_Endpoint.svg;imageBorder=default;imageBackground=#33FF33;" parent="14" vertex="1">
                    <mxGeometry x="22" y="25" width="41.46" height="38" as="geometry"/>
                </mxCell>
                <mxCell id="4" value="POST: \person" style="image;aspect=fixed;html=1;points=[];align=center;fontSize=12;image=img/lib/azure2/networking/Private_Endpoint.svg;imageBackground=#99CCFF;imageBorder=default;" parent="14" vertex="1">
                    <mxGeometry x="174" y="30" width="40.37" height="37" as="geometry"/>
                </mxCell>
                <mxCell id="5" value="DELETE: Person\{id}" style="image;aspect=fixed;html=1;points=[];align=center;fontSize=12;image=img/lib/azure2/networking/Private_Endpoint.svg;imageBackground=#FF0000;imageBorder=default;" parent="14" vertex="1">
                    <mxGeometry x="326" y="26" width="40.37" height="37" as="geometry"/>
                </mxCell>
                <mxCell id="11" value="PUT: Person\{id}" style="image;aspect=fixed;html=1;points=[];align=center;fontSize=12;image=img/lib/azure2/networking/Private_Endpoint.svg;imageBackground=#FFFF99;imageBorder=default;" parent="14" vertex="1">
                    <mxGeometry x="455" y="25" width="40.37" height="37" as="geometry"/>
                </mxCell>
                <mxCell id="16" style="edgeStyle=none;html=1;exitX=1;exitY=0;exitDx=0;exitDy=0;entryX=0.925;entryY=0.03;entryDx=0;entryDy=0;entryPerimeter=0;" edge="1" parent="1" source="8Htt1fXJtcJN40JPZz6O-14" target="8Htt1fXJtcJN40JPZz6O-14">
                    <mxGeometry relative="1" as="geometry"/>
                </mxCell>
            </root>
        </mxGraphModel>
    </diagram>
</mxfile>